<?xml version="1.0" encoding="UTF-8" standalone="no"?>
<!-- Created with Inkscape (http://www.inkscape.org/) -->

<svg
   width="95.078201mm"
   height="35.976707mm"
   viewBox="0 0 95.078201 35.976707"
   version="1.1"
   id="svg842"
   xmlns:inkscape="http://www.inkscape.org/namespaces/inkscape"
   xmlns:sodipodi="http://sodipodi.sourceforge.net/DTD/sodipodi-0.dtd"
   xmlns="http://www.w3.org/2000/svg"
   xmlns:svg="http://www.w3.org/2000/svg">
  <sodipodi:namedview
     id="namedview844"
     pagecolor="#ffffff"
     bordercolor="#666666"
     borderopacity="1.0"
     inkscape:showpageshadow="2"
     inkscape:pageopacity="0.0"
     inkscape:pagecheckerboard="true"
     inkscape:deskcolor="#d1d1d1"
     inkscape:document-units="mm"
     showgrid="false" />
  <defs
     id="defs839" />
  <g
     inkscape:label="Capa 1"
     inkscape:groupmode="layer"
     id="layer1"
     transform="translate(-69.924516,-69.219549)">
    <g
       id="g5452"
       inkscape:export-filename="g5452.svg"
       inkscape:export-xdpi="96"
       inkscape:export-ydpi="96">
      <path
         d="m 117.46944,86.231156 c -0.0272,0 -0.0508,-0.0035 -0.078,-0.0078 -0.0233,-0.0078 -0.0508,-0.01164 -0.0744,-0.02328 -0.0229,-0.0078 -0.0469,-0.02364 -0.0663,-0.03528 -0.0194,-0.01552 -0.0434,-0.0314 -0.0586,-0.0508 -0.0741,-0.07056 -0.1136,-0.171803 -0.1136,-0.273756 0,-0.10548 0.0395,-0.206728 0.1136,-0.277283 0.0152,-0.01976 0.0392,-0.03528 0.0586,-0.04692 0.0194,-0.01552 0.0434,-0.02752 0.0663,-0.03916 0.0236,-0.0078 0.0511,-0.01552 0.0744,-0.0194 0.12911,-0.02752 0.26176,0.01552 0.35172,0.105481 0.0194,0.0194 0.0353,0.0388 0.0508,0.05856 0.0116,0.02364 0.0275,0.04304 0.0353,0.06632 0.0113,0.02752 0.0152,0.05115 0.0236,0.07444 0.004,0.02752 0.007,0.0508 0.007,0.07796 0,0.101953 -0.0427,0.2032 -0.11712,0.273756 -0.0702,0.07444 -0.17181,0.117122 -0.27376,0.117122"
         style="fill:#ce7777;fill-opacity:0.499443;fill-rule:nonzero;stroke:none;stroke-width:0.0352778"
         id="path82" />
      <path
         d="m 128.7929,74.114651 c 0,-0.215195 0.17604,-0.390878 0.39123,-0.390878 v 0 c 0.21484,0 0.39053,0.171803 0.39053,0.390878 v 0 c 0,0.214841 -0.17181,0.390525 -0.39053,0.390525 v 0 c -0.21519,0 -0.39123,-0.175684 -0.39123,-0.390525 z m 2.36114,0.5588 v 0 c -0.21554,-0.03528 -0.35595,-0.238478 -0.31714,-0.453673 v 0 c 0.0353,-0.210961 0.23883,-0.3556 0.45014,-0.316441 v 0 c 0.21449,0.03528 0.35525,0.238478 0.31609,0.453672 v 0 c -0.0314,0.187325 -0.19544,0.320322 -0.38276,0.320322 v 0 c -0.0236,0 -0.043,0 -0.0663,-0.0039 z m -4.38996,-0.316442 c -0.0346,-0.211314 0.10583,-0.414514 0.31714,-0.449439 v 0 c 0.21485,-0.03916 0.41769,0.101247 0.45297,0.316442 v 0 c 0.0392,0.210961 -0.10548,0.414161 -0.31644,0.453319 v 0 c -0.0233,0.0039 -0.0469,0.0039 -0.0663,0.0039 v 0 c -0.18768,0 -0.35208,-0.132997 -0.38735,-0.324203 z m 6.29743,0.824442 c -0.20355,-0.07408 -0.30903,-0.297039 -0.23495,-0.500239 v 0 c 0.0744,-0.2032 0.29739,-0.308681 0.50059,-0.234597 v 0 c 0.2032,0.07444 0.30868,0.297038 0.2346,0.500238 v 0 c -0.0586,0.160514 -0.20708,0.258234 -0.36759,0.258234 v 0 c -0.043,0 -0.09,-0.0081 -0.13265,-0.02364 z m -8.25147,-0.226836 c -0.0741,-0.2032 0.0314,-0.429684 0.23072,-0.499887 v 0 c 0,0 0,0 0,-0.0042 v 0 c 0.2032,-0.07408 0.43003,0.0314 0.50412,0.234597 v 0 c 0.0744,0.2032 -0.0314,0.425803 -0.2346,0.500592 v 0 c -0.043,0.0194 -0.09,0.02328 -0.13264,0.02328 v 0 c -0.16052,0 -0.30904,-0.09807 -0.3676,-0.254352 z m 10.04147,1.059391 v 0 c -0.18768,-0.10548 -0.25048,-0.347839 -0.14464,-0.531636 v 0 c 0.10971,-0.187678 0.34748,-0.254 0.53587,-0.144286 v 0 0 0 c 0.18309,0.109361 0.24976,0.347839 0.14005,0.535517 v 0 c -0.0702,0.12453 -0.20285,0.195086 -0.33584,0.195086 v 0 c -0.0667,0 -0.13265,-0.0194 -0.19544,-0.05468 z M 122.9883,75.881009 c -0.10866,-0.187325 -0.0469,-0.425803 0.14111,-0.535517 v 0 c 0.18732,-0.10548 0.42615,-0.04269 0.53551,0.144992 v 0 c 0.10548,0.187325 0.0427,0.425803 -0.14463,0.531283 v 0 c -0.0589,0.03916 -0.12912,0.05503 -0.19544,0.05503 v 0 c -0.133,0 -0.266,-0.07056 -0.33655,-0.195792 z m 13.4814,1.266825 v 0 c -0.16828,-0.136878 -0.18733,-0.386997 -0.0508,-0.551392 v 0 c 0.14076,-0.164041 0.387,-0.187677 0.55104,-0.04692 v 0 c 0.16827,0.136878 0.18732,0.383117 0.0511,0.551039 v 0 c -0.0787,0.08996 -0.18838,0.136878 -0.30162,0.136878 v 0 c -0.0896,0 -0.17534,-0.02716 -0.24977,-0.08961 z m -15.11512,-0.03951 c -0.14076,-0.164042 -0.11712,-0.410281 0.0473,-0.546806 v 0 c 0.16405,-0.141111 0.41417,-0.121355 0.5514,0.04657 v 0 c 0.13617,0.164042 0.11712,0.410633 -0.0473,0.551039 v 0 c -0.0744,0.05856 -0.16404,0.08996 -0.25435,0.08996 v 0 c -0.10901,0 -0.21872,-0.04692 -0.29704,-0.140758 z m 16.51424,1.434747 c -0.14076,-0.164394 -0.11713,-0.41028 0.0473,-0.551392 v 0 c 0.16369,-0.140405 0.41028,-0.117122 0.55104,0.04692 v 0 0 0 c 0.13652,0.164394 0.11712,0.410633 -0.0473,0.551391 v 0 c -0.0744,0.06244 -0.16368,0.09384 -0.254,0.09384 v 0 c -0.109,0 -0.22225,-0.0508 -0.29703,-0.140758 z m -17.90947,0.05856 c -0.16793,-0.136878 -0.18733,-0.383116 -0.0508,-0.547158 v 0 0 0 c 0.14075,-0.168275 0.38699,-0.187678 0.55104,-0.0508 v 0 c 0.16827,0.140405 0.18767,0.386997 0.0511,0.551039 h -0.004 c -0.0744,0.09384 -0.18767,0.140758 -0.29703,0.140758 v 0 c -0.09,0 -0.17957,-0.0314 -0.25012,-0.09384 z m 19.04329,1.555397 h 0.004 c -0.10936,-0.187325 -0.0466,-0.425802 0.14076,-0.531283 v 0 c 0.1838,-0.109714 0.42651,-0.04692 0.53164,0.140758 v 0 c 0,0 0,0 0.004,0 v 0 c 0.10584,0.187325 0.0438,0.425803 -0.14428,0.535517 v 0 c -0.0621,0.03493 -0.12877,0.0508 -0.19544,0.0508 v 0 c -0.13265,0 -0.26564,-0.0702 -0.33973,-0.195792 z m -20.16125,0.156634 c -0.18767,-0.105481 -0.25012,-0.343959 -0.14428,-0.531636 v 0 c 0.10971,-0.187678 0.34748,-0.250473 0.53551,-0.144639 v 0 c 0.18733,0.109361 0.25012,0.347839 0.14041,0.535516 v 0 c -0.0702,0.124884 -0.2032,0.195439 -0.33584,0.195439 v 0 c -0.0663,0 -0.13724,-0.01552 -0.1958,-0.05468 z m 21.00157,1.633714 c -0.0741,-0.2032 0.0275,-0.430037 0.23036,-0.50412 v 0 c 0.20356,-0.07408 0.43039,0.03104 0.50448,0.234597 v 0 c 0.0744,0.2032 -0.0314,0.425803 -0.2346,0.500239 v 0 c -0.0434,0.01552 -0.09,0.02328 -0.13265,0.02328 v 0 c -0.16086,0 -0.30903,-0.09772 -0.36759,-0.254 z m -21.80661,0.246238 c -0.19931,-0.07408 -0.30444,-0.297038 -0.23071,-0.500238 v 0 0 0 c 0.0702,-0.2032 0.29704,-0.3048 0.50059,-0.234598 v 0 c 0.20285,0.07408 0.30868,0.30092 0.23424,0.504473 v 0 c -0.0582,0.15628 -0.20708,0.254 -0.36724,0.254 v 0 c -0.0469,0 -0.09,-0.0081 -0.13688,-0.02364 z m 22.31884,1.65735 c -0.0395,-0.210961 0.10513,-0.414161 0.31609,-0.453319 v 0 c 0.21132,-0.03528 0.41452,0.10548 0.45332,0.316442 v 0 c 0,0 0,0 0,0.0039 v 0 c 0.0392,0.210961 -0.10513,0.414161 -0.31644,0.449792 v 0 c -0.0236,0.0035 -0.0466,0.0078 -0.0667,0.0078 v 0 c -0.18732,0 -0.35489,-0.132997 -0.38629,-0.324556 z m -22.78027,0.336198 c -0.21061,-0.03916 -0.35172,-0.238478 -0.31644,-0.453673 v 0 0 0 c 0.0392,-0.210961 0.24236,-0.355247 0.45332,-0.316441 v 0 c 0.21131,0.03528 0.35595,0.238477 0.31715,0.453319 v 0 c -0.0314,0.187678 -0.1958,0.320675 -0.38347,0.320675 v 0 c -0.0233,0 -0.0469,0 -0.0706,-0.0039"
         style="fill:#ce7777;fill-opacity:0.499443;fill-rule:nonzero;stroke:none;stroke-width:0.0352778"
         id="path84" />
      <path
         d="m 140.91752,86.231156 c -0.1016,0 -0.2032,-0.04269 -0.27375,-0.117122 -0.0741,-0.07056 -0.11713,-0.171803 -0.11713,-0.273756 0,-0.05045 0.012,-0.101247 0.0314,-0.1524 0.0198,-0.04657 0.0469,-0.0896 0.0857,-0.124883 0.14463,-0.144639 0.4064,-0.144639 0.55139,0 0.0349,0.03528 0.0663,0.07832 0.0864,0.124883 0.019,0.05115 0.0268,0.101953 0.0268,0.1524 0,0.101953 -0.0388,0.2032 -0.11324,0.273756 -0.0706,0.07444 -0.17181,0.117122 -0.27764,0.117122"
         style="fill:#ce7777;fill-opacity:0.499443;fill-rule:nonzero;stroke:none;stroke-width:0.0352778"
         id="path86" />
      <path
         d="m 122.27322,86.231156 c -0.1016,0 -0.20285,-0.04269 -0.27729,-0.117122 -0.0159,-0.01552 -0.0353,-0.03528 -0.0473,-0.05856 -0.0152,-0.0194 -0.0268,-0.04304 -0.0388,-0.06668 -0.008,-0.02328 -0.0155,-0.04657 -0.0194,-0.07408 -0.008,-0.02364 -0.008,-0.0508 -0.008,-0.07444 0,-0.05045 0.008,-0.101247 0.0275,-0.1524 0.0194,-0.04657 0.0508,-0.0896 0.0861,-0.124883 0.14464,-0.144639 0.4064,-0.144639 0.55104,0 0.0395,0.03528 0.0663,0.07832 0.0857,0.124883 0.0198,0.05115 0.0314,0.101953 0.0314,0.1524 0,0.101953 -0.0427,0.2032 -0.11712,0.273756 -0.0702,0.07444 -0.1718,0.117122 -0.27375,0.117122"
         style="fill:#ce7777;fill-opacity:0.499443;fill-rule:nonzero;stroke:none;stroke-width:0.0352778"
         id="path88" />
      <path
         d="m 130.12182,79.375626 c -0.21485,-0.0314 -0.36337,-0.230717 -0.33232,-0.445559 v 0 c 0.0279,-0.210961 0.22684,-0.359833 0.44168,-0.328436 v 0 c 0.21131,0.02716 0.35983,0.226483 0.33231,0.441678 v 0 c -0.031,0.195439 -0.19544,0.336197 -0.38664,0.336197 v 0 c -0.0198,0 -0.0392,-0.0039 -0.055,-0.0039 z m -2.30188,-0.332317 c -0.0314,-0.215195 0.11712,-0.410281 0.33196,-0.441678 v 0 c 0.21132,-0.0314 0.41064,0.117475 0.44168,0.332317 v 0 c 0.0314,0.210961 -0.11712,0.41028 -0.33231,0.441678 v 0 c -0.0194,0 -0.0388,0.0039 -0.0547,0.0039 v 0 c -0.19156,0 -0.35913,-0.140758 -0.38665,-0.336197 z m 4.08446,0.851958 c -0.19932,-0.08996 -0.2854,-0.320322 -0.19544,-0.515761 v 0 c 0.0896,-0.199319 0.32032,-0.285397 0.52,-0.195439 v 0 c 0.19508,0.08996 0.28116,0.320322 0.1912,0.519642 v 0 c -0.0667,0.140758 -0.20673,0.226836 -0.35524,0.226836 v 0 c -0.0554,0 -0.10972,-0.01164 -0.16052,-0.03528 z m -5.94113,-0.191558 c -0.0942,-0.195439 -0.008,-0.425803 0.19156,-0.515761 v 0 c 0.19509,-0.08996 0.42616,-0.0039 0.51576,0.191558 v 0 c 0.09,0.195439 0.004,0.429683 -0.1912,0.519642 v 0 c -0.0554,0.02364 -0.10972,0.03528 -0.1644,0.03528 v 0 c -0.14887,0 -0.28892,-0.08608 -0.35172,-0.230717 z m 7.50111,1.196269 c -0.16086,-0.140758 -0.18026,-0.386997 -0.0399,-0.551039 v 0 c 0.14464,-0.164041 0.39123,-0.179916 0.55139,-0.03916 v 0 c 0.1644,0.140758 0.18345,0.386645 0.0388,0.551039 v 0 c -0.0741,0.08996 -0.18345,0.132997 -0.29316,0.132997 v 0 c -0.0896,0 -0.1838,-0.0314 -0.25718,-0.09384 z m -9.09954,-0.03528 c -0.14112,-0.164042 -0.12171,-0.410281 0.0388,-0.551039 v 0 c 0.16404,-0.144639 0.41028,-0.124884 0.55492,0.03916 v 0 c 0.14111,0.160161 0.12136,0.410281 -0.0427,0.551039 v 0 c -0.0744,0.06244 -0.16439,0.09384 -0.25435,0.09384 v 0 c -0.10936,0 -0.21872,-0.04304 -0.29668,-0.132997 z m 10.31839,1.438275 c -0.11712,-0.183445 -0.0663,-0.421923 0.11783,-0.539398 v 0 c 0.17921,-0.117122 0.42192,-0.06632 0.53904,0.113242 v 0 c 0.11713,0.18415 0.0663,0.426156 -0.11712,0.543278 v 0 c -0.0628,0.04339 -0.13723,0.06279 -0.21131,0.06279 v 0 c -0.12489,0 -0.254,-0.06632 -0.32844,-0.179916 z m -11.52278,0.121355 c -0.18344,-0.117475 -0.2346,-0.359833 -0.11712,-0.53975 v 0 c 0.11712,-0.183444 0.35595,-0.234244 0.53975,-0.117122 v 0 c 0.17956,0.117122 0.23424,0.359833 0.11712,0.539397 v 0 c -0.0744,0.117475 -0.19967,0.179917 -0.32843,0.179917 v 0 c -0.0744,0 -0.14852,-0.0194 -0.21132,-0.06244 z m 12.29678,1.567392 c -0.0586,-0.207081 0.0589,-0.426156 0.26564,-0.484717 v 0 c 0.20743,-0.06244 0.42615,0.05468 0.48507,0.261761 v 0 c 0,0 0,0 0,0.0039 v 0 c 0.0624,0.2032 -0.0547,0.422275 -0.26176,0.485069 v 0 c -0.0392,0.0074 -0.0748,0.01552 -0.11395,0.01552 v 0 c -0.16757,0 -0.3242,-0.113594 -0.375,-0.281516 z m -13.01574,0.269522 c -0.20708,-0.05856 -0.32455,-0.277283 -0.26599,-0.484364 v 0 0 0 c 0.0624,-0.207081 0.27763,-0.324555 0.48507,-0.265994 v 0 c 0.20672,0.06244 0.32773,0.277283 0.26528,0.484716 v 0 c -0.0508,0.172156 -0.20672,0.281517 -0.375,0.281517 v 0 c -0.0353,0 -0.0741,-0.0039 -0.10936,-0.01587"
         style="fill:#ce7777;fill-opacity:0.499443;fill-rule:nonzero;stroke:none;stroke-width:0.0352778"
         id="path90" />
      <path
         d="m 136.11375,86.231156 c -0.1016,0 -0.20285,-0.04269 -0.27729,-0.117122 -0.0702,-0.07056 -0.11359,-0.171803 -0.11359,-0.273756 0,-0.10548 0.0434,-0.2032 0.11359,-0.277283 0.14852,-0.144639 0.41028,-0.144639 0.55492,0 0.0744,0.07408 0.1136,0.171803 0.1136,0.277283 0,0.101953 -0.0392,0.2032 -0.1136,0.273756 -0.0741,0.07444 -0.1718,0.117122 -0.27763,0.117122"
         style="fill:#ce7777;fill-opacity:0.499443;fill-rule:nonzero;stroke:none;stroke-width:0.0352778"
         id="path92" />
      <path
         d="m 164.61184,88.185545 c -0.10513,0 -0.2032,-0.04269 -0.27764,-0.117122 -0.0699,-0.0702 -0.11324,-0.172156 -0.11324,-0.273756 0,-0.10548 0.0434,-0.20708 0.11324,-0.277283 0.145,-0.144639 0.41064,-0.144639 0.55528,0 0.0702,0.07408 0.11324,0.171803 0.11324,0.277283 0,0.1016 -0.043,0.203553 -0.11324,0.273756 -0.0741,0.07444 -0.17569,0.117122 -0.27764,0.117122"
         style="fill:#ce7777;fill-opacity:0.499443;fill-rule:nonzero;stroke:none;stroke-width:0.0352778"
         id="path94" />
      <path
         d="m 164.3656,90.226011 c -0.21061,-0.03916 -0.35172,-0.242358 -0.31609,-0.453319 v 0 c 0.0388,-0.211314 0.23813,-0.355953 0.45297,-0.316794 v 0 c 0.21131,0.03493 0.35595,0.238477 0.31679,0.453672 v 0 0 0 c -0.031,0.187325 -0.19932,0.320322 -0.38699,0.320322 v 0 c -0.0194,0 -0.043,0 -0.0667,-0.0039 z m -23.51052,-0.300919 c -0.0353,-0.210961 0.10583,-0.414161 0.31679,-0.453672 v 0 c 0.2152,-0.03493 0.41805,0.105833 0.45332,0.316794 v 0.0039 c 0.0392,0.210961 -0.10195,0.414161 -0.31679,0.449439 v 0 c -0.0233,0.0039 -0.0469,0.0081 -0.0663,0.0081 v 0 c -0.18733,0 -0.35172,-0.13335 -0.387,-0.324556 z m 22.91644,2.263069 c -0.2032,-0.07444 -0.30832,-0.297038 -0.23424,-0.500238 v 0 c 0.0744,-0.203553 0.29668,-0.309034 0.50024,-0.23495 v 0 c 0.2032,0.07444 0.30903,0.301272 0.23459,0.504472 v 0 c -0.0586,0.15628 -0.20743,0.254 -0.36724,0.254 v 0 c -0.043,0 -0.0903,-0.0074 -0.13335,-0.02328 z m -22.3654,-0.214841 v 0 0 c -0.0741,-0.203553 0.0314,-0.426156 0.2346,-0.500239 v 0 c 0.2032,-0.07444 0.42615,0.03104 0.50023,0.230364 v 0 c 0.0744,0.2032 -0.0314,0.430036 -0.23036,0.504119 v 0 c -0.0473,0.01587 -0.09,0.02364 -0.13688,0.02364 v 0 c -0.15628,0 -0.30868,-0.09772 -0.36759,-0.25788 z m 21.43513,2.043994 c -0.18733,-0.10548 -0.25012,-0.343958 -0.14464,-0.531636 v 0 c 0.10936,-0.187325 0.34819,-0.250119 0.53552,-0.144639 v 0 c 0.18803,0.109714 0.25012,0.347839 0.14075,0.535517 v 0 c -0.0699,0.125236 -0.20284,0.195439 -0.33619,0.195439 v 0 c -0.0663,0 -0.13265,-0.01552 -0.19544,-0.05468 z M 142.305,93.892431 c -0.10548,-0.187678 -0.0427,-0.426156 0.14463,-0.531636 v 0 c 0.18415,-0.109361 0.42616,-0.04692 0.53199,0.140758 h 0.004 c 0.10584,0.183444 0.043,0.425803 -0.14463,0.531636 v 0 c -0.0628,0.03881 -0.12947,0.05468 -0.1958,0.05468 v 0 c -0.13652,0 -0.26564,-0.07056 -0.34007,-0.195439 z m 19.30153,1.766711 c -0.16475,-0.136878 -0.18768,-0.383117 -0.0469,-0.551392 v 0 c 0.13652,-0.164041 0.38276,-0.183444 0.55068,-0.04692 v 0 c 0.1644,0.141111 0.1838,0.386997 0.0469,0.551391 v 0 c -0.0776,0.09384 -0.18732,0.140759 -0.30056,0.140759 v 0 c -0.0861,0 -0.17604,-0.0314 -0.25012,-0.09384 z m -18.08198,-0.0314 c -0.13653,-0.168275 -0.11712,-0.414161 0.0512,-0.551039 v 0 c 0.16369,-0.140759 0.41063,-0.121356 0.54681,0.04692 v 0 c 0.14111,0.164042 0.11747,0.410281 -0.0466,0.551039 v 0 c -0.0706,0.05856 -0.16051,0.08996 -0.25012,0.08996 v 0 c -0.10971,0 -0.22295,-0.04692 -0.30127,-0.136877 z m 16.58479,1.434394 c -0.14111,-0.164042 -0.11748,-0.41028 0.0469,-0.551039 v 0 c 0.16404,-0.136878 0.41063,-0.117475 0.55068,0.0508 v 0 c 0.13723,0.164042 0.11783,0.410634 -0.0469,0.547159 v 0 c -0.0741,0.06279 -0.16404,0.09384 -0.25364,0.09384 v 0 c -0.10972,0 -0.21908,-0.04657 -0.29704,-0.140758 z m -15.08372,0.06279 c -0.1644,-0.140759 -0.18733,-0.386998 -0.0466,-0.551392 v 0 c 0.13653,-0.167922 0.38277,-0.187678 0.55069,-0.0508 v 0 c 0.16439,0.140758 0.18379,0.386997 0.0469,0.551392 v 0 c -0.078,0.09349 -0.18733,0.140758 -0.30057,0.140758 v 0 c -0.0861,0 -0.17604,-0.0314 -0.25047,-0.08996 z m 13.36393,1.062919 c -0.10972,-0.187678 -0.043,-0.426156 0.14463,-0.535517 v 0 c 0.18345,-0.109361 0.42581,-0.04692 0.53164,0.140759 v 0 c 0.10901,0.187677 0.0466,0.426155 -0.14111,0.535516 v 0 c -0.0621,0.03528 -0.12876,0.05468 -0.19509,0.05468 v 0 c -0.13723,0 -0.26564,-0.0702 -0.34007,-0.195438 z m -11.62438,0.148519 v 0 0 c -0.18768,-0.10548 -0.254,-0.343958 -0.145,-0.531636 v 0 c 0.10972,-0.187325 0.3482,-0.250119 0.53552,-0.144286 v 0 c 0.18415,0.109361 0.25047,0.347839 0.14076,0.535164 v 0 c -0.0702,0.125236 -0.2032,0.195439 -0.33973,0.195439 v 0 c -0.0628,0 -0.13299,-0.01552 -0.19155,-0.05468 z m 9.73631,0.656873 c -0.0741,-0.203553 0.0314,-0.426156 0.23424,-0.500239 v 0 c 0.20356,-0.07444 0.42651,0.03104 0.50059,0.234597 v 0 c 0.0744,0.198967 -0.0314,0.425803 -0.23071,0.500239 v 0 c -0.0469,0.01552 -0.0896,0.02328 -0.13653,0.02328 v 0 c -0.16051,0 -0.30903,-0.09772 -0.36759,-0.25788 z m -7.8172,0.238477 c -0.2032,-0.07055 -0.30516,-0.297039 -0.2346,-0.500591 v 0 c 0.0741,-0.2032 0.30092,-0.3048 0.50447,-0.234597 v 0 c 0.20285,0.07444 0.30445,0.300919 0.23037,0.504472 v 0 c -0.0547,0.15628 -0.20709,0.254 -0.3676,0.254 v 0 c -0.0427,0 -0.0857,-0.0078 -0.13264,-0.02328 z m 5.81977,0.226484 c -0.0388,-0.210961 0.10583,-0.414161 0.3168,-0.45332 v 0 c 0.21096,-0.03528 0.41416,0.105481 0.45367,0.316795 v 0 c 0.0349,0.214841 -0.10584,0.418041 -0.31715,0.452966 v 0 c -0.0229,0.0042 -0.0469,0.0081 -0.0702,0.0081 v 0 c -0.18345,0 -0.35172,-0.136878 -0.38312,-0.324555 z m -3.77155,0.320675 c 0,0 0,0 0.004,0 v 0 c -0.21484,-0.03528 -0.3556,-0.238831 -0.32067,-0.449439 v 0 c 0.0356,-0.215195 0.23883,-0.359834 0.45367,-0.320675 v 0 c 0.21096,0.03528 0.3556,0.238478 0.31679,0.453319 v 0 c -0.0314,0.187678 -0.19967,0.324556 -0.38311,0.324556 v 0 c -0.0233,0 -0.0469,-0.0039 -0.0702,-0.0078 z m 1.71944,-0.211314 c 0,-0.214842 0.17604,-0.390525 0.39088,-0.390525 v 0 c 0.21908,0 0.39123,0.175683 0.39511,0.390525 v 0 c 0,0.215194 -0.17603,0.390878 -0.39511,0.390878 v 0 c -0.21484,0 -0.39088,-0.171803 -0.39088,-0.390878"
         style="fill:#ce7777;fill-opacity:0.499443;fill-rule:nonzero;stroke:none;stroke-width:0.0352778"
         id="path96" />
      <path
         d="m 141.06251,88.185545 c -0.10548,0 -0.20355,-0.04269 -0.27799,-0.117122 -0.0741,-0.0702 -0.11324,-0.172156 -0.11324,-0.273756 0,-0.10548 0.0392,-0.2032 0.11324,-0.277283 0.145,-0.144639 0.40676,-0.144639 0.5514,0 0.0741,0.07408 0.11712,0.171803 0.11712,0.277283 0,0.1016 -0.043,0.203553 -0.11712,0.273756 -0.0702,0.07444 -0.17216,0.117122 -0.27341,0.117122"
         style="fill:#ce7777;fill-opacity:0.499443;fill-rule:nonzero;stroke:none;stroke-width:0.0352778"
         id="path98" />
    </g>
    <g
       id="g5441">
      <path
         d="m 70.319281,86.622034 c -0.105128,0 -0.207081,-0.04304 -0.277284,-0.117122 -0.03916,-0.03528 -0.06667,-0.07832 -0.08608,-0.125237 -0.0194,-0.04657 -0.0314,-0.09772 -0.0314,-0.148519 0,-0.105481 0.04304,-0.207081 0.117475,-0.277283 0.08996,-0.08996 0.222603,-0.132998 0.35172,-0.105481 0.02364,0.0039 0.0508,0.01129 0.07408,0.0194 0.02364,0.01164 0.04727,0.02328 0.06668,0.03916 0.0194,0.01164 0.03916,0.02752 0.05856,0.04692 0.07408,0.0702 0.113242,0.171802 0.113242,0.277283 0,0.0508 -0.0078,0.101953 -0.02716,0.148519 -0.01976,0.04692 -0.0508,0.08996 -0.08608,0.125237 -0.0194,0.0194 -0.03916,0.03528 -0.05856,0.0508 -0.0194,0.01164 -0.04304,0.02328 -0.06668,0.03528 -0.02328,0.01164 -0.05045,0.01552 -0.07408,0.02328 -0.02364,0.0039 -0.0508,0.0078 -0.07444,0.0078"
         style="fill:#2b3a55;fill-opacity:0.5;fill-rule:nonzero;stroke:none;stroke-width:0.0352778"
         id="path52" />
      <path
         d="m 87.97863,69.99844 c -0.219075,-0.01129 -0.382763,-0.198967 -0.367594,-0.414161 v 0 c 0.01199,-0.215195 0.199672,-0.379237 0.414514,-0.363714 v 0 c 0.214842,0.01199 0.379236,0.195791 0.363714,0.414514 v 0 c -0.01199,0.20708 -0.183797,0.363361 -0.386997,0.363361 v 0 c -0.0081,0 -0.01588,0 -0.02364,0 z m -2.458508,-0.363361 c -0.01164,-0.214842 0.148872,-0.40252 0.367595,-0.414514 v 0 c 0.214841,-0.01129 0.398638,0.148519 0.414161,0.367594 v 0 c 0.01164,0.215195 -0.1524,0.398992 -0.367242,0.414161 v 0 c -0.0081,0 -0.01587,0 -0.02364,0 v 0 c -0.207081,0 -0.379236,-0.160161 -0.390878,-0.367241 z m 4.483453,0.617713 c -0.215195,-0.04304 -0.35172,-0.246238 -0.312914,-0.457552 v 0 c 0.03916,-0.214842 0.246239,-0.35172 0.457553,-0.312914 v 0 0 0 c 0.210961,0.03951 0.351719,0.246591 0.312561,0.457553 v 0 c -0.03528,0.187677 -0.19932,0.316794 -0.383117,0.316794 v 0 c -0.02716,0 -0.0508,0 -0.07408,-0.0039 z m -6.551083,-0.309033 c -0.03881,-0.210961 0.09772,-0.414161 0.312913,-0.4572 v 0 c 0.210962,-0.0388 0.414162,0.1016 0.4572,0.312914 v 0 c 0.03916,0.210961 -0.1016,0.418042 -0.312561,0.4572 v 0 c -0.02364,0.0039 -0.04727,0.0078 -0.07444,0.0078 v 0 c -0.183797,0 -0.347839,-0.132997 -0.383116,-0.320675 z m 8.528755,0.813153 v 0 c -0.2032,-0.06632 -0.316442,-0.289278 -0.250119,-0.492478 v 0 c 0.06632,-0.207433 0.285044,-0.316442 0.492477,-0.254 v 0 c 0,0 0,0 0,0.0039 v 0 c 0.2032,0.06244 0.316442,0.285397 0.25012,0.488597 v 0 c -0.05468,0.167922 -0.207081,0.273403 -0.371475,0.273403 v 0 c -0.03881,0 -0.08185,-0.0078 -0.121003,-0.0194 z M 81.439542,70.514554 c -0.06668,-0.207081 0.04692,-0.426156 0.250119,-0.496359 v 0 c 0,0 0,0 0.0039,0 v 0 c 0.2032,-0.06632 0.426155,0.04692 0.492477,0.254 v 0 c 0.06668,0.2032 -0.04692,0.426156 -0.254,0.492831 v 0 c -0.03916,0.01129 -0.07832,0.0194 -0.121002,0.0194 v 0 c -0.164395,0 -0.316795,-0.105834 -0.371475,-0.269875 z m 12.44106,0.992716 c -0.195086,-0.09384 -0.281163,-0.324555 -0.187325,-0.519641 v 0 c 0.09384,-0.195439 0.324556,-0.281164 0.519642,-0.187678 v 0 0 0 c 0.195792,0.08996 0.277636,0.324203 0.187678,0.519994 v 0 c -0.06632,0.140406 -0.207081,0.222603 -0.3556,0.222603 v 0 c -0.05468,0 -0.109361,-0.01164 -0.164395,-0.03528 z M 79.51655,71.327706 c -0.09384,-0.191558 -0.0078,-0.426155 0.187325,-0.519994 v 0 c 0.195792,-0.08996 0.426156,-0.0078 0.519994,0.187678 v 0 c 0.08996,0.195439 0.0078,0.430036 -0.187677,0.519641 v 0 c -0.05468,0.02752 -0.109361,0.03916 -0.164042,0.03916 v 0 c -0.148519,0 -0.289278,-0.08185 -0.3556,-0.226484 z m 16.1544,1.160639 v 0 c -0.183798,-0.113241 -0.238478,-0.3556 -0.121356,-0.539397 v 0 c 0.113595,-0.179564 0.355953,-0.234597 0.53975,-0.121003 v 0 c 0.179564,0.117122 0.234245,0.359481 0.121003,0.539397 v 0 c -0.07444,0.117475 -0.2032,0.183798 -0.332317,0.183798 v 0 c -0.0702,0 -0.144639,-0.01976 -0.20708,-0.0628 z m -17.960269,-0.10548 c -0.117475,-0.183798 -0.06244,-0.425803 0.121002,-0.542925 v 0 c 0.179917,-0.113595 0.422275,-0.05891 0.539398,0.12065 v 0 c 0.113241,0.183797 0.06279,0.426155 -0.121003,0.539397 v 0 c -0.06668,0.04339 -0.136878,0.06279 -0.207433,0.06279 v 0 c -0.132645,0 -0.257881,-0.06279 -0.331964,-0.179916 z m 19.609858,1.30563 v 0 c -0.164395,-0.136878 -0.187678,-0.383116 -0.05115,-0.551039 v 0 c 0.13723,-0.164394 0.383116,-0.187677 0.551391,-0.0508 v 0 c 0.164042,0.136878 0.187678,0.382764 0.0508,0.551039 v 0 c -0.07796,0.09384 -0.187677,0.140758 -0.300919,0.140758 v 0 c -0.08608,0 -0.176036,-0.02752 -0.250119,-0.08996 z M 76.04945,73.649337 c -0.136878,-0.164042 -0.113242,-0.410281 0.05115,-0.547158 v 0 c 0.167922,-0.141112 0.413808,-0.117475 0.550686,0.0508 v 0 c 0.136878,0.164041 0.117475,0.41028 -0.05045,0.551038 v 0 c -0.07444,0.05856 -0.160514,0.08996 -0.250472,0.08996 v 0 c -0.109362,0 -0.222603,-0.0508 -0.30092,-0.144639 z m 22.760163,1.438628 c -0.144638,-0.160514 -0.140758,-0.406753 0.01976,-0.555273 v 0 c 0.156281,-0.148519 0.402167,-0.140758 0.550686,0.01552 v 0 c 0.148872,0.160513 0.141111,0.4064 -0.01517,0.555272 v 0 c -0.07832,0.0702 -0.172156,0.10548 -0.269875,0.10548 v 0 c -0.1016,0 -0.207081,-0.04304 -0.285398,-0.121002 z m -24.249591,0.03104 c -0.15628,-0.148519 -0.164041,-0.394758 -0.01517,-0.555272 v 0 c 0.148519,-0.155928 0.394758,-0.164042 0.550686,-0.01552 v 0 c 0.156633,0.148519 0.164394,0.394758 0.01587,0.551391 v 0 c -0.07444,0.08185 -0.179917,0.124884 -0.285397,0.124884 v 0 c -0.09349,0 -0.191559,-0.03528 -0.265995,-0.105481 z m 25.555218,1.535994 c -0.129113,-0.171802 -0.09,-0.418041 0.0857,-0.543277 v 0 c 0.17215,-0.128764 0.41839,-0.08996 0.54328,0.0822 v 0 c 0,0 0,0 0.004,0 v 0 c 0.12523,0.176036 0.0861,0.421922 -0.0857,0.547158 v 0 c -0.0706,0.0508 -0.15275,0.07444 -0.23071,0.07444 v 0 c -0.12101,0 -0.24236,-0.05468 -0.31645,-0.160514 z m -26.848854,0.105834 c -0.175683,-0.129117 -0.214841,-0.371475 -0.08572,-0.547511 v 0 c 0.124884,-0.175684 0.371122,-0.215195 0.543278,-0.08608 v 0 c 0.175683,0.125236 0.214842,0.371828 0.08572,0.547158 v 0 c -0.07408,0.1016 -0.195439,0.160514 -0.316442,0.160514 v 0 c -0.07832,0 -0.160161,-0.02716 -0.226836,-0.07408 z m 27.947054,1.613958 v 0.0039 c -0.10548,-0.191559 -0.0392,-0.429684 0.1524,-0.531636 v 0 c 0.18768,-0.105128 0.42616,-0.03881 0.53164,0.152752 v 0 0 0 c 0.1016,0.187325 0.0353,0.426156 -0.1524,0.531284 v 0 c -0.0624,0.0314 -0.12524,0.04692 -0.19156,0.04692 v 0 c -0.13688,0 -0.26988,-0.07408 -0.34008,-0.2032 z m -29.029376,0.176036 c -0.187678,-0.10548 -0.258233,-0.343958 -0.152753,-0.531636 v 0 c 0.105481,-0.187325 0.340078,-0.25788 0.531636,-0.1524 v 0 c 0.187678,0.1016 0.257881,0.340078 0.1524,0.527756 v 0 c -0.0702,0.132997 -0.2032,0.2032 -0.343958,0.2032 v 0 c -0.06244,0 -0.128764,-0.01552 -0.187325,-0.04692 z m 29.901096,1.668992 c -0.0822,-0.19932 0.0155,-0.425803 0.21872,-0.508353 v 0 c 0.19932,-0.07796 0.42615,0.01976 0.50447,0.219075 v 0 c 0.0818,0.199672 -0.0155,0.430036 -0.21519,0.508353 v 0 c -0.0469,0.0194 -0.0977,0.02716 -0.14464,0.02716 v 0 c -0.15628,0 -0.3048,-0.09384 -0.36336,-0.246239 z m -30.745646,0.242358 c -0.2032,-0.07832 -0.300919,-0.305153 -0.222603,-0.508353 v 0 c 0.0822,-0.199319 0.308681,-0.296686 0.508,-0.218722 v 0 c 0.2032,0.08185 0.30092,0.308681 0.219075,0.508353 v 0 c -0.05891,0.152047 -0.207433,0.245886 -0.363714,0.245886 v 0 c -0.04692,0 -0.09384,-0.0078 -0.140758,-0.02716 z m 31.378876,1.696508 c -0.0547,-0.207433 0.0702,-0.422275 0.28152,-0.473075 v 0 c 0.20673,-0.05468 0.42192,0.0702 0.47272,0.277637 v 0 c 0.0547,0.210961 -0.0702,0.421922 -0.28152,0.476602 v 0 c -0.031,0.0078 -0.0624,0.01164 -0.0938,0.01164 v 0 c -0.17568,0 -0.33584,-0.117122 -0.37888,-0.292806 z M 70.737675,82.46737 c -0.20708,-0.05503 -0.332316,-0.265994 -0.281516,-0.476956 v 0 c 0.05468,-0.20708 0.265641,-0.332316 0.476955,-0.281516 v 0 c 0.207081,0.05468 0.335845,0.265641 0.281517,0.476955 v 0 c -0.04692,0.175684 -0.2032,0.293159 -0.379236,0.293159 v 0 c -0.0314,0 -0.06244,-0.0039 -0.09772,-0.01164 z m 32.363485,1.696508 v 0 c -0.0272,-0.215194 0.12523,-0.410633 0.34043,-0.43815 v 0 c 0.21096,-0.02716 0.4064,0.125236 0.43356,0.340078 v 0 c 0.0275,0.215194 -0.12488,0.410633 -0.3362,0.437797 v 0 c -0.0194,0 -0.0349,0.0039 -0.0508,0.0039 v 0 c -0.19508,0 -0.36336,-0.144639 -0.38699,-0.343606 z M 70.397597,84.53112 C 70.182756,84.5036 70.034236,84.308164 70.05752,84.093323 v 0 0 0 c 0.02752,-0.214842 0.222955,-0.367595 0.437797,-0.340078 v 0 c 0.214842,0.02752 0.367242,0.222603 0.340078,0.437797 v 0 C 70.808231,84.386481 70.639956,84.535 70.448397,84.535 v 0 c -0.01552,0 -0.03528,-0.0039 -0.0508,-0.0039"
         style="fill:#2b3a55;fill-opacity:0.5;fill-rule:nonzero;stroke:none;stroke-width:0.0352778"
         id="path54" />
      <path
         d="m 103.62115,86.622034 c -0.0508,0 -0.1016,-0.01164 -0.14852,-0.03105 -0.0508,-0.0194 -0.09,-0.04727 -0.12876,-0.08608 -0.0706,-0.07056 -0.1136,-0.171803 -0.1136,-0.273756 0,-0.105481 0.043,-0.2032 0.1136,-0.277283 0.0388,-0.03528 0.0818,-0.06632 0.12876,-0.08608 0.14464,-0.05856 0.31679,-0.02328 0.4258,0.08608 0.0706,0.07408 0.1136,0.171802 0.1136,0.277283 0,0.101953 -0.043,0.2032 -0.1136,0.273756 -0.0349,0.0388 -0.078,0.06667 -0.12841,0.08608 -0.0473,0.0194 -0.0981,0.03105 -0.14887,0.03105"
         style="fill:#2b3a55;fill-opacity:0.5;fill-rule:nonzero;stroke:none;stroke-width:0.0352778"
         id="path56" />
      <path
         d="m 75.244058,86.622034 c -0.02716,0 -0.05045,-0.0039 -0.07796,-0.0078 -0.02328,-0.0078 -0.04692,-0.01164 -0.07056,-0.02328 -0.02716,-0.0081 -0.04657,-0.02364 -0.06985,-0.03528 -0.01976,-0.01552 -0.03951,-0.0314 -0.05891,-0.0508 -0.0194,-0.01552 -0.03528,-0.03528 -0.04692,-0.05856 -0.01552,-0.01975 -0.02752,-0.04304 -0.03881,-0.06667 -0.0081,-0.02328 -0.01588,-0.04657 -0.01976,-0.07408 -0.0081,-0.02364 -0.0081,-0.0508 -0.0081,-0.07444 0,-0.105481 0.03916,-0.2032 0.113594,-0.277283 0.109361,-0.109361 0.281517,-0.144639 0.426156,-0.08608 0.04692,0.01976 0.08996,0.0508 0.124883,0.08608 0.03916,0.03493 0.06668,0.07832 0.08608,0.124883 0.01976,0.05115 0.03104,0.101953 0.03104,0.1524 0,0.101953 -0.04269,0.2032 -0.117122,0.273756 -0.07056,0.07408 -0.171803,0.117122 -0.273756,0.117122"
         style="fill:#2b3a55;fill-opacity:0.5;fill-rule:nonzero;stroke:none;stroke-width:0.0352778"
         id="path58" />
      <path
         d="m 86.958397,74.896053 c -0.214842,0 -0.390878,-0.176036 -0.390878,-0.390877 v 0 c 0,-0.214842 0.176036,-0.390525 0.390878,-0.390525 v 0 c 0.219075,0 0.390878,0.171802 0.395111,0.390525 v 0 c 0,0.214841 -0.176036,0.390877 -0.390878,0.390877 v 0 c -0.219075,0 0,0 -0.0042,0 z m 1.970264,0.168275 c -0.211314,-0.03916 -0.355953,-0.238477 -0.316795,-0.453672 v 0 c 0.03492,-0.210961 0.238478,-0.3556 0.449439,-0.316441 v 0 0 0 c 0.215195,0.03528 0.355953,0.238477 0.320675,0.453319 v 0 c -0.03528,0.187678 -0.199319,0.320675 -0.386997,0.320675 v 0 c -0.0194,0 -0.04304,0 -0.06632,-0.0039 z m -4.389614,-0.312913 c -0.03493,-0.214842 0.105481,-0.418042 0.320675,-0.452967 v 0 c 0.210961,-0.03916 0.414161,0.101247 0.449439,0.316442 v 0 c 0.03881,0.210961 -0.1016,0.414161 -0.316442,0.453319 v 0 c -0.02364,0.0039 -0.04304,0.0039 -0.06667,0.0039 v 0 c -0.187677,0 -0.351719,-0.132998 -0.386997,-0.320675 z m 6.297083,0.820913 C 90.632578,75.497892 90.527097,75.27529 90.601533,75.07209 v 0 c 0.07408,-0.2032 0.297039,-0.308681 0.500239,-0.234245 v 0 c 0.2032,0.07408 0.308681,0.296686 0.234597,0.500239 v 0 c -0.05856,0.159808 -0.20708,0.257881 -0.367241,0.257881 v 0 c -0.04339,0 -0.09031,-0.0078 -0.132998,-0.02364 z m -8.251472,-0.226836 c -0.07408,-0.2032 0.0314,-0.429683 0.234598,-0.500239 v 0 c 0.203552,-0.07796 0.426155,0.02752 0.500238,0.230717 v 0 c 0.07444,0.203553 -0.03104,0.426156 -0.234597,0.500592 v 0 c -0.04269,0.01552 -0.08996,0.02328 -0.132644,0.02328 v 0 c -0.160514,0 -0.309034,-0.09772 -0.367595,-0.254353 z m 10.041467,1.059392 c -0.187678,-0.105481 -0.25012,-0.347839 -0.140759,-0.531283 v 0 c 0.105834,-0.187678 0.343959,-0.254353 0.531637,-0.144992 v 0 c 0.187677,0.109714 0.250119,0.348192 0.144638,0.531636 v 0 c -0.07444,0.129117 -0.2032,0.19932 -0.340077,0.19932 v 0 c -0.06632,0 -0.132645,-0.0194 -0.195439,-0.05468 z M 80.763267,76.271887 c -0.109361,-0.187325 -0.04304,-0.425803 0.140758,-0.535517 v 0 c 0.187678,-0.10548 0.426156,-0.04269 0.535517,0.144639 v 0 c 0.109361,0.183797 0.04304,0.426156 -0.140759,0.535517 v 0 c -0.06244,0.03528 -0.129116,0.0508 -0.195439,0.0508 v 0 c -0.136877,0 -0.269522,-0.0702 -0.340077,-0.195439 z m 13.481049,1.266825 c -0.164041,-0.136878 -0.187677,-0.386997 -0.04692,-0.551392 v 0 c 0.136878,-0.164042 0.383117,-0.187678 0.551039,-0.04692 v 0 c 0.164394,0.136877 0.187678,0.383116 0.04692,0.551039 v 0 c -0.07796,0.08996 -0.187678,0.13723 -0.300919,0.13723 v 0 c -0.08572,0 -0.175684,-0.02787 -0.25012,-0.08996 z m -15.114763,-0.03916 c -0.136878,-0.164041 -0.117475,-0.410633 0.0508,-0.547511 v 0 c 0,0 0,0 -0.0039,0 v 0 c 0.167922,-0.140758 0.414161,-0.117122 0.551039,0.04692 v 0 c 0.140758,0.164041 0.117122,0.410633 -0.04692,0.551039 v 0 c -0.07408,0.05856 -0.164042,0.08996 -0.25012,0.08996 v 0 c -0.113241,0 -0.222955,-0.04657 -0.300919,-0.140406 z m 16.514233,1.434395 c -0.140759,-0.164395 -0.117475,-0.414514 0.04657,-0.551392 v 0 c 0.164395,-0.140405 0.410634,-0.117122 0.551392,0.04727 v 0 c 0.136878,0.164042 0.117122,0.409928 -0.04692,0.551039 v 0 c -0.07444,0.06244 -0.164395,0.08961 -0.25012,0.08961 v 0 c -0.113241,0 -0.222955,-0.04657 -0.300919,-0.136525 z m -17.909822,0.05856 c -0.164042,-0.136878 -0.187325,-0.383117 -0.04692,-0.547158 v 0 c 0.136877,-0.167923 0.383469,-0.187678 0.547511,-0.0508 v 0 c 0.167922,0.140758 0.187677,0.386644 0.0508,0.551038 v 0 c -0.07832,0.09384 -0.187678,0.140759 -0.301273,0.140759 v 0 c -0.0896,0 -0.175683,-0.03105 -0.250119,-0.09384 z m 19.047177,1.555397 C 96.67178,80.360581 96.734222,80.122103 96.9219,80.016623 v 0 c 0.187677,-0.109714 0.426155,-0.04692 0.535164,0.140405 v 0 c 0.10548,0.18415 0.04339,0.426156 -0.144287,0.531636 v 0 c -0.05891,0.03916 -0.129116,0.05503 -0.195438,0.05503 v 0 c -0.132998,0 -0.265995,-0.07056 -0.336198,-0.195792 z m -20.16513,0.156633 c -0.187325,-0.105833 -0.250119,-0.343958 -0.140405,-0.531636 v 0 c 0.10548,-0.187677 0.343958,-0.250119 0.531636,-0.144639 v 0 c 0.187678,0.109362 0.250119,0.347839 0.144639,0.535517 v 0 c -0.07444,0.124883 -0.207434,0.195439 -0.340078,0.195439 v 0 c -0.06668,0 -0.132997,-0.0194 -0.195792,-0.05468 z m 21.001566,1.629834 v 0 c -0.07444,-0.19932 0.0314,-0.425803 0.234598,-0.500239 v 0 c 0.2032,-0.07444 0.425802,0.03104 0.500238,0.234244 v 0 c 0.07408,0.203553 -0.0314,0.426156 -0.234597,0.500239 v 0 c -0.04304,0.01587 -0.08996,0.02364 -0.132997,0.02364 v 0 c -0.160161,0 -0.30868,-0.09772 -0.367242,-0.25788 z M 75.814853,82.58449 c -0.2032,-0.07444 -0.308681,-0.297039 -0.234597,-0.500239 v 0 0 0 c 0.07444,-0.2032 0.297039,-0.3048 0.500239,-0.234244 v 0 c 0.203552,0.07408 0.309033,0.300567 0.234597,0.503767 v 0 c -0.05856,0.15628 -0.206728,0.258233 -0.367242,0.258233 v 0 c -0.04304,0 -0.08996,-0.0081 -0.132997,-0.02752 z m 22.314605,1.65735 c -0.03493,-0.210961 0.105833,-0.414514 0.316794,-0.453672 v 0 c 0.214842,-0.03492 0.418042,0.105833 0.45332,0.316794 v 0 c 0.0388,0.214842 -0.105481,0.418395 -0.316442,0.453673 v 0 c -0.02364,0.0035 -0.04692,0.0078 -0.06668,0.0078 v 0 c -0.187678,0 -0.351719,-0.132998 -0.386997,-0.324556 z m -22.775686,0.336197 c -0.214841,-0.03916 -0.3556,-0.238477 -0.320322,-0.453672 v 0 c 0.03881,-0.210961 0.242006,-0.3556 0.452967,-0.316442 v 0 c 0.215194,0.03528 0.355953,0.238478 0.316794,0.45332 v 0 c -0.0314,0.187678 -0.195439,0.320675 -0.383116,0.320675 v 0 c -0.02328,0 -0.04269,0 -0.06632,-0.0039"
         style="fill:#2b3a55;fill-opacity:0.5;fill-rule:nonzero;stroke:none;stroke-width:0.0352778"
         id="path60" />
      <path
         d="m 98.696019,86.622034 c -0.05045,0 -0.101247,-0.01164 -0.152047,-0.03105 -0.04692,-0.0194 -0.08996,-0.04727 -0.125236,-0.08608 -0.03493,-0.03528 -0.06632,-0.07832 -0.08572,-0.125237 -0.01976,-0.04657 -0.02787,-0.09772 -0.02787,-0.148519 0,-0.02716 0,-0.05045 0.0081,-0.07796 0.0039,-0.02328 0.01164,-0.05115 0.01976,-0.07444 0.01129,-0.02328 0.02328,-0.04269 0.0388,-0.06632 0.01199,-0.0194 0.02752,-0.03916 0.04692,-0.05856 0.03528,-0.03528 0.07832,-0.06632 0.125236,-0.08608 0.144639,-0.05856 0.320322,-0.02328 0.429683,0.08608 0.01552,0.0194 0.0314,0.03916 0.04692,0.05856 0.01199,0.02364 0.02752,0.04304 0.03528,0.06632 0.0078,0.02328 0.01587,0.05115 0.02364,0.07444 0.0039,0.02752 0.0074,0.0508 0.0074,0.07796 0,0.0508 -0.01129,0.101953 -0.03104,0.148519 -0.0194,0.04692 -0.04692,0.08996 -0.0822,0.125237 -0.07408,0.07408 -0.175683,0.117122 -0.277636,0.117122"
         style="fill:#2b3a55;fill-opacity:0.5;fill-rule:nonzero;stroke:none;stroke-width:0.0352778"
         id="path62" />
      <path
         d="m 80.047833,86.622034 c -0.1016,0 -0.2032,-0.04304 -0.277283,-0.117122 -0.0702,-0.07056 -0.113242,-0.171803 -0.113242,-0.273756 0,-0.105481 0.04304,-0.2032 0.113242,-0.277283 0.109361,-0.109361 0.285044,-0.144639 0.426156,-0.08608 0.0508,0.01976 0.08996,0.0508 0.128763,0.08608 0.07056,0.07408 0.113242,0.171802 0.113242,0.277283 0,0.02364 -0.0035,0.0508 -0.0078,0.07444 -0.0039,0.02752 -0.01164,0.0508 -0.02328,0.07408 -0.0078,0.02364 -0.01976,0.04692 -0.03528,0.06667 -0.01587,0.02328 -0.03104,0.04304 -0.04692,0.05856 -0.07408,0.07408 -0.175683,0.117122 -0.277636,0.117122"
         style="fill:#2b3a55;fill-opacity:0.5;fill-rule:nonzero;stroke:none;stroke-width:0.0352778"
         id="path64" />
      <path
         d="m 87.896786,79.766503 v 0 c -0.215194,-0.0314 -0.363714,-0.230716 -0.332317,-0.445911 v 0 c 0.02716,-0.210608 0.226484,-0.35948 0.441678,-0.328083 v 0 c 0,0 0,0 0,-0.0039 v 0 c 0.214842,0.03104 0.363361,0.230364 0.331964,0.445559 v 0 c -0.02716,0.195439 -0.195439,0.336197 -0.386644,0.336197 v 0 c -0.0194,0 -0.03916,-0.0039 -0.05468,-0.0039 z m -2.302228,-0.332316 c -0.0314,-0.215195 0.117122,-0.410281 0.331964,-0.441678 v 0 0 0 c 0.211314,-0.0314 0.410633,0.117475 0.442031,0.332317 v 0 c 0.03104,0.210961 -0.117475,0.41028 -0.332317,0.441677 v 0 c -0.01976,0 -0.03528,0.0039 -0.05503,0.0039 v 0 c -0.191206,0 -0.359481,-0.140758 -0.386645,-0.336197 z m 4.084461,0.851958 v 0 C 89.48358,80.196187 89.393622,79.965823 89.48358,79.770384 v 0 c 0.08961,-0.199672 0.324556,-0.285397 0.519995,-0.195439 v 0 c 0.195086,0.08996 0.281516,0.320322 0.191205,0.519642 v 0 c -0.06244,0.140758 -0.20708,0.226836 -0.3556,0.226836 v 0 c -0.05468,0 -0.109361,-0.01164 -0.160161,-0.03528 z m -5.94113,-0.191558 c -0.08996,-0.195439 -0.0039,-0.425803 0.191558,-0.515761 v 0 0 0 c 0.195439,-0.08996 0.430036,-0.0039 0.519995,0.191558 v 0 c 0.0896,0.195439 0.0035,0.429683 -0.195792,0.519642 v 0 c -0.0508,0.02364 -0.105481,0.03528 -0.160161,0.03528 v 0 c -0.14852,0 -0.293159,-0.08608 -0.3556,-0.230716 z m 7.504641,1.195916 v 0 c -0.164041,-0.140405 -0.183797,-0.386644 -0.03916,-0.550686 v 0 c 0.140758,-0.164394 0.386997,-0.179916 0.551039,-0.03916 v 0 0 0 c 0.160514,0.140758 0.179917,0.386644 0.03916,0.551039 v 0 c -0.07832,0.08996 -0.187678,0.132644 -0.297039,0.132644 v 0 c -0.08996,0 -0.179916,-0.03104 -0.254,-0.09384 z m -9.099549,-0.03493 c -0.144639,-0.164041 -0.125237,-0.41028 0.03916,-0.551039 v 0 0 0 c 0.160161,-0.144638 0.4064,-0.125236 0.551039,0.03916 v 0 c 0.140758,0.164041 0.121355,0.41028 -0.03916,0.551039 v 0 c -0.07408,0.06244 -0.167922,0.09384 -0.257527,0.09384 v 0 c -0.109714,0 -0.219075,-0.04304 -0.293511,-0.132998 z m 10.319102,1.438275 c -0.117475,-0.179564 -0.06668,-0.421922 0.113242,-0.539397 v 0 c 0.183797,-0.117122 0.426155,-0.06632 0.543278,0.113242 v 0 c 0,0 0,0 -0.0039,0 v 0 c 0.121003,0.183797 0.06632,0.426155 -0.113242,0.54363 v 0 c -0.06668,0.04269 -0.140758,0.06244 -0.211314,0.06244 v 0 c -0.129116,0 -0.254,-0.06244 -0.328083,-0.179917 z m -11.526661,0.121356 c -0.183797,-0.117475 -0.234597,-0.359833 -0.117475,-0.539397 v 0 0 0 c 0.117475,-0.183798 0.359834,-0.234598 0.539397,-0.117123 v 0 c 0.183798,0.117123 0.234598,0.359481 0.117475,0.539045 v 0 c -0.07444,0.117475 -0.199672,0.179917 -0.328436,0.179917 v 0 c -0.07444,0 -0.144639,-0.0194 -0.210961,-0.06244 z m 12.300303,1.567039 v 0 c -0.06244,-0.206728 0.05503,-0.425803 0.262114,-0.484364 v 0 c 0.20708,-0.06244 0.426155,0.05468 0.484716,0.261761 v 0 c 0.06244,0.207433 -0.05468,0.426155 -0.262114,0.484717 v 0 c -0.0388,0.01164 -0.07408,0.01976 -0.109361,0.01976 v 0 c -0.172155,0 -0.324555,-0.113594 -0.375355,-0.281869 z m -13.019617,0.269875 c -0.20708,-0.05856 -0.324555,-0.277284 -0.261761,-0.484364 v 0 c 0.05856,-0.207434 0.277284,-0.324556 0.484364,-0.265995 v 0 c 0.203553,0.06279 0.324556,0.277284 0.262114,0.484717 v 0 c -0.04692,0.172156 -0.2032,0.281164 -0.375356,0.281164 v 0 c -0.03493,0 -0.0702,-0.0035 -0.109361,-0.01552"
         style="fill:#2b3a55;fill-opacity:0.5;fill-rule:nonzero;stroke:none;stroke-width:0.0352778"
         id="path66" />
      <path
         d="m 93.892597,86.622034 c -0.105481,0 -0.2032,-0.04304 -0.277636,-0.113242 -0.0194,-0.0194 -0.03528,-0.03916 -0.0508,-0.06244 -0.01164,-0.01975 -0.02328,-0.04304 -0.03528,-0.06667 -0.0078,-0.02328 -0.01552,-0.04657 -0.0194,-0.07408 -0.0078,-0.02364 -0.0078,-0.0508 -0.0078,-0.07444 0,-0.101247 0.03916,-0.2032 0.113242,-0.277283 0.144639,-0.144639 0.4064,-0.144639 0.551391,0 0.07408,0.07408 0.117123,0.176036 0.117123,0.277283 0,0.02364 -0.0039,0.0508 -0.0078,0.07444 -0.0078,0.02752 -0.01552,0.0508 -0.02364,0.07408 -0.01164,0.02364 -0.02328,0.04692 -0.03528,0.06667 -0.01552,0.02328 -0.03105,0.04304 -0.05045,0.06244 -0.01588,0.01552 -0.03528,0.0314 -0.05891,0.04692 -0.0194,0.01164 -0.04304,0.02716 -0.06632,0.03528 -0.02328,0.01164 -0.0508,0.0194 -0.07408,0.02328 -0.02364,0.0039 -0.05115,0.0078 -0.07444,0.0078"
         style="fill:#2b3a55;fill-opacity:0.5;fill-rule:nonzero;stroke:none;stroke-width:0.0352778"
         id="path68" />
      <path
         d="m 127.26467,88.576423 c -0.10583,0 -0.20355,-0.04269 -0.27728,-0.117123 -0.0198,-0.01552 -0.0349,-0.03528 -0.0473,-0.05856 -0.0155,-0.01976 -0.0275,-0.04339 -0.0388,-0.06668 -0.008,-0.02328 -0.0155,-0.04657 -0.0198,-0.07408 -0.008,-0.02364 -0.008,-0.0508 -0.008,-0.07444 0,-0.02716 0,-0.0508 0.008,-0.07832 0.004,-0.02328 0.012,-0.04657 0.0198,-0.07408 0.0113,-0.02364 0.0233,-0.04304 0.0388,-0.06632 0.0123,-0.0194 0.0275,-0.03916 0.0473,-0.05856 0.0349,-0.03528 0.0783,-0.06667 0.12523,-0.08643 0.0977,-0.03881 0.20673,-0.03881 0.30057,0 0.0469,0.01976 0.09,0.05115 0.12523,0.08643 0.0194,0.0194 0.0349,0.03916 0.0508,0.05856 0.0117,0.02328 0.0268,0.04269 0.0353,0.06632 0.0116,0.02752 0.0155,0.0508 0.0229,0.07408 0.004,0.02752 0.008,0.05115 0.008,0.07832 0,0.02364 -0.004,0.0508 -0.008,0.07444 -0.007,0.02752 -0.0113,0.0508 -0.0229,0.07408 -0.008,0.02328 -0.0236,0.04692 -0.0353,0.06668 -0.0159,0.02328 -0.0314,0.04304 -0.0508,0.05856 -0.0709,0.07444 -0.17215,0.117123 -0.27375,0.117123"
         style="fill:#2b3a55;fill-opacity:0.5;fill-rule:nonzero;stroke:none;stroke-width:0.0352778"
         id="path70" />
      <path
         d="m 127.0851,90.659928 c -0.21519,-0.02752 -0.36759,-0.222603 -0.34007,-0.433917 v 0 c 0.0275,-0.214841 0.2226,-0.367594 0.43779,-0.340077 v 0 c 0.21485,0.02716 0.36725,0.222602 0.34008,0.433916 v 0 c -0.0275,0.19932 -0.19544,0.343959 -0.387,0.343959 v 0 c -0.0159,0 -0.0353,0 -0.0508,-0.0039 z M 93.704919,90.347367 c -0.02752,-0.211314 0.125236,-0.406753 0.340078,-0.434269 v 0 c 0.210961,-0.02716 0.4064,0.125236 0.433917,0.33655 v 0 c 0.02716,0.214841 -0.121356,0.41028 -0.336198,0.437444 v 0 c -0.01975,0.0039 -0.03528,0.0039 -0.0508,0.0039 v 0 c -0.191558,0 -0.363714,-0.144287 -0.386997,-0.343606 z m 32.942031,2.356556 c -0.20708,-0.0508 -0.33619,-0.265642 -0.28116,-0.472723 v 0 c 0.0547,-0.211314 0.26564,-0.336197 0.47696,-0.285397 v 0 c 0.20708,0.05468 0.33196,0.269875 0.28116,0.476603 v 0 c -0.0469,0.176036 -0.20673,0.293511 -0.37888,0.293511 v 0 c -0.0314,0 -0.0667,-0.0039 -0.0981,-0.01199 z m -32.539511,-0.254 c -0.05468,-0.207081 0.07055,-0.421923 0.281516,-0.476603 v 0 c 0.207081,-0.05468 0.421922,0.07408 0.473075,0.281516 v 0 c 0.05433,0.210962 -0.07055,0.421923 -0.277636,0.476603 v 0 c -0.03528,0.0078 -0.06632,0.01164 -0.09772,0.01164 v 0 c -0.176036,0 -0.336198,-0.117122 -0.379236,-0.293158 z m 31.847721,2.228144 c -0.19932,-0.07832 -0.30092,-0.305153 -0.21872,-0.504472 v -0.0039 c 0.0783,-0.199319 0.3048,-0.297039 0.508,-0.218722 v 0 c 0.19931,0.0822 0.29668,0.30868 0.21907,0.508 v 0 0 0 c -0.0624,0.1524 -0.21096,0.246239 -0.36371,0.246239 v 0 c -0.0508,0 -0.0977,-0.0078 -0.14464,-0.02716 z M 94.772072,94.482275 c -0.0822,-0.199319 0.01552,-0.425803 0.218722,-0.508 v 0 c 0.19932,-0.07832 0.426156,0.01976 0.508353,0.219075 v 0 c 0.07796,0.2032 -0.01976,0.430036 -0.219075,0.508 v 0 c -0.0508,0.01976 -0.09772,0.02752 -0.144639,0.02752 v 0 c -0.156281,0 -0.3048,-0.08996 -0.363361,-0.246592 z m 30.245048,2.067984 c -0.18768,-0.105834 -0.25788,-0.343959 -0.15205,-0.531637 v 0 c 0.10513,-0.187677 0.33938,-0.258233 0.53129,-0.1524 v 0 c 0.18803,0.1016 0.25788,0.340078 0.15275,0.531637 v 0 c -0.0706,0.128763 -0.20355,0.199319 -0.34466,0.199319 v 0 c -0.0617,0 -0.12453,-0.01552 -0.18733,-0.04692 z M 95.686825,96.417261 v 0 0 c -0.105834,-0.187325 -0.03916,-0.425802 0.1524,-0.531636 v 0 c 0.187325,-0.10548 0.425802,-0.03528 0.531636,0.1524 v 0 c 0.101247,0.187678 0.03493,0.426156 -0.156634,0.531636 v 0 c -0.05856,0.0314 -0.124883,0.04692 -0.187677,0.04692 v 0 c -0.136525,0 -0.269523,-0.0702 -0.339725,-0.19932 z m 28.169655,1.872192 c -0.17603,-0.128764 -0.21519,-0.375003 -0.0861,-0.547158 v 0 c 0.12489,-0.175684 0.37148,-0.214842 0.54328,-0.08572 v 0 c 0.17569,0.124883 0.21484,0.371122 0.0861,0.543277 v 0 c -0.0744,0.105481 -0.19579,0.164042 -0.31644,0.164042 v 0 c -0.0783,0 -0.16016,-0.02752 -0.22684,-0.07444 z m -27.020658,-0.0702 c -0.129117,-0.172155 -0.08996,-0.418394 0.08608,-0.547511 v 0 c 0.171802,-0.124883 0.418041,-0.08572 0.543277,0.08643 v 0 c 0.128764,0.175683 0.08961,0.418041 -0.08608,0.547158 v 0 c -0.06632,0.05045 -0.14852,0.07408 -0.226836,0.07408 v 0 c -0.121003,0 -0.242359,-0.05468 -0.316442,-0.160161 z m 25.648358,1.649589 c -0.15593,-0.148519 -0.16404,-0.398639 -0.0155,-0.555272 v 0 c 0.14464,-0.156281 0.39512,-0.164395 0.55104,-0.01552 v 0 c 0.15664,0.144286 0.1644,0.394758 0.0159,0.551038 v 0 0 0 c -0.0741,0.0822 -0.17992,0.125237 -0.28152,0.125237 v 0 c -0.0974,0 -0.19544,-0.03528 -0.26987,-0.105481 z m -24.284166,-0.0042 c -0.14852,-0.156281 -0.140759,-0.40252 0.01552,-0.551039 v 0 c 0.160161,-0.14852 0.4064,-0.140759 0.554919,0.01587 v 0 c 0.14852,0.15628 0.140758,0.402519 -0.01552,0.551039 v 0 c -0.07832,0.0702 -0.171803,0.10548 -0.269522,0.10548 v 0 c -0.105834,0 -0.207434,-0.03916 -0.285397,-0.121355 z m 22.728766,1.399478 c -0.14076,-0.16793 -0.11712,-0.41452 0.0508,-0.55104 v 0 c 0.16792,-0.13688 0.41416,-0.11748 0.55104,0.0508 v 0 c 0.13688,0.16404 0.11359,0.41416 -0.0504,0.55104 v 0 0 0 c -0.0744,0.0589 -0.16439,0.09 -0.25047,0.09 v 0 c -0.11324,0 -0.2226,-0.0469 -0.30092,-0.14075 z m -21.169489,0.0624 c -0.164041,-0.13653 -0.187325,-0.38312 -0.0508,-0.54716 v 0 c 0.137231,-0.16828 0.383119,-0.19156 0.551039,-0.0547 v 0 c 0.16439,0.13688 0.18803,0.38311 0.0512,0.55104 v 0 c -0.0783,0.0938 -0.18767,0.14076 -0.30127,0.14076 v 0 c -0.08572,0 -0.175683,-0.0272 -0.250119,-0.09 z m 19.449349,1.12571 c -0.11325,-0.17992 -0.0621,-0.42227 0.1217,-0.5394 v 0 c 0.1838,-0.11747 0.42193,-0.0624 0.53905,0.12136 v 0 c 0.11712,0.17956 0.0628,0.42192 -0.121,0.53904 v 0 c -0.0624,0.0392 -0.13688,0.0628 -0.20709,0.0628 v 0 c -0.12911,0 -0.25823,-0.0667 -0.33266,-0.1838 z m -17.71756,0.133 c -0.17992,-0.11712 -0.2346,-0.3556 -0.12136,-0.5394 v 0 c 0.11712,-0.1838 0.35948,-0.2346 0.5394,-0.12135 v 0 c 0.1838,0.11747 0.23848,0.3556 0.12135,0.53939 v 0 c -0.0741,0.11748 -0.19931,0.1838 -0.32843,0.1838 v 0 c -0.0744,0 -0.14464,-0.0194 -0.21096,-0.0624 z m 15.86477,0.83255 c -0.0896,-0.19544 -0.007,-0.42615 0.18803,-0.51999 v 0 c 0.19544,-0.0896 0.42968,-0.008 0.51964,0.18768 v 0 c 0.0942,0.19544 0.008,0.43003 -0.18768,0.51999 v 0 c -0.0508,0.0272 -0.10936,0.0388 -0.16404,0.0388 v 0 c -0.14852,0 -0.28893,-0.0857 -0.35595,-0.22649 z m -13.9887,0.19932 c -0.19544,-0.0938 -0.27764,-0.32455 -0.18768,-0.51999 v 0 c 0.0938,-0.19544 0.32456,-0.28117 0.52,-0.18768 v 0 c 0.19544,0.09 0.28116,0.32456 0.18767,0.52 v 0 c -0.0667,0.14075 -0.20743,0.22295 -0.35172,0.22295 v 0 c -0.0586,0 -0.11359,-0.012 -0.16827,-0.0353 z m 12.0269,0.52776 c -0.0663,-0.20743 0.0473,-0.42616 0.25435,-0.49248 v 0 c 0.2032,-0.0667 0.42228,0.043 0.49213,0.25012 v 0 c 0.0667,0.2032 -0.0469,0.4258 -0.254,0.49248 v 0 0 0 c -0.0388,0.0116 -0.0783,0.0194 -0.11748,0.0194 v 0 c -0.16757,0 -0.32032,-0.10548 -0.375,-0.26952 z m -10.03335,0.25788 c -0.20744,-0.0663 -0.32068,-0.2854 -0.254,-0.49248 v 0 c 0.0663,-0.2032 0.28892,-0.31679 0.49212,-0.25012 v 0 c 0.20744,0.0667 0.3168,0.28505 0.25047,0.49248 v 0 c -0.0508,0.16404 -0.20743,0.26952 -0.37147,0.26952 v 0 c -0.0392,0 -0.078,-0.008 -0.11712,-0.0194 z m 7.99676,0.21484 c -0.0388,-0.21484 0.1016,-0.41804 0.31292,-0.4572 v 0 c 0.21096,-0.043 0.41839,0.0977 0.4572,0.30903 v 0 c 0.0392,0.21097 -0.0977,0.41805 -0.31256,0.45685 v 0 c 0,0 0,0 0.004,0 v 0 c -0.0272,0.004 -0.0512,0.008 -0.0741,0.008 v 0 c -0.18767,0 -0.34819,-0.133 -0.38735,-0.3168 z m -5.92525,0.31291 c 0,0 0,0 0,0.004 v 0 c -0.21132,-0.043 -0.35172,-0.24624 -0.31256,-0.45756 v 0 c 0.043,-0.21484 0.24624,-0.35172 0.4572,-0.31256 v 0 c 0.21484,0.0392 0.35172,0.24236 0.31256,0.4572 v 0 c -0.0353,0.18768 -0.19932,0.3168 -0.38277,0.3168 v 0 c -0.0236,0 -0.0469,-0.004 -0.0744,-0.008 z m 3.84598,-0.1016 c -0.0113,-0.21484 0.15275,-0.40287 0.3676,-0.41451 v 0 c 0.21484,-0.0155 0.39863,0.14852 0.41416,0.36371 v 0 c 0.0116,0.21485 -0.1524,0.40252 -0.36725,0.41417 v 0 c -0.008,0 -0.0155,0.004 -0.0236,0.004 v 0 c -0.20708,0 -0.37536,-0.16052 -0.39088,-0.36725 z m -1.72367,0.36725 c -0.2152,-0.0155 -0.37924,-0.19932 -0.36372,-0.41416 v 0 c 0.012,-0.2152 0.1958,-0.37924 0.41064,-0.3676 v 0 c 0.21519,0.0159 0.38311,0.19967 0.36759,0.41451 v 0 c -0.012,0.20673 -0.18379,0.36725 -0.39088,0.36725 v 0 c -0.008,0 -0.0155,0 -0.0236,0"
         style="fill:#2b3a55;fill-opacity:0.5;fill-rule:nonzero;stroke:none;stroke-width:0.0352778"
         id="path72" />
      <path
         d="m 93.958919,88.576423 c -0.1016,0 -0.2032,-0.04269 -0.277283,-0.117123 -0.03528,-0.03528 -0.06279,-0.07832 -0.0822,-0.125236 -0.01976,-0.04657 -0.0314,-0.09772 -0.0314,-0.148519 0,-0.0508 0.01164,-0.1016 0.0314,-0.1524 0.0194,-0.04692 0.04692,-0.08996 0.0822,-0.124883 0.109361,-0.109714 0.285397,-0.144992 0.425803,-0.08643 0.0508,0.02364 0.09384,0.05115 0.129116,0.08643 0.03493,0.03493 0.06244,0.07796 0.0822,0.124883 0.02328,0.0508 0.0314,0.1016 0.0314,0.1524 0,0.0508 -0.0081,0.101953 -0.0314,0.148519 -0.01976,0.04692 -0.04727,0.08996 -0.0822,0.125236 -0.03528,0.03916 -0.07832,0.06632 -0.129116,0.08572 -0.04692,0.01976 -0.09772,0.0314 -0.14852,0.0314"
         style="fill:#2b3a55;fill-opacity:0.5;fill-rule:nonzero;stroke:none;stroke-width:0.0352778"
         id="path74" />
      <path
         d="m 122.38646,88.576423 c -0.0504,0 -0.1016,-0.01164 -0.14852,-0.0314 -0.0469,-0.0194 -0.0896,-0.04657 -0.12877,-0.08572 -0.0702,-0.07055 -0.11324,-0.171802 -0.11324,-0.273755 0,-0.0508 0.0116,-0.1016 0.031,-0.14852 0.0194,-0.0508 0.0469,-0.09384 0.0822,-0.128763 0.0392,-0.03528 0.0818,-0.06279 0.12877,-0.08643 0.0706,-0.02716 0.14852,-0.03493 0.22683,-0.0194 0.0236,0.0042 0.0473,0.01199 0.0702,0.0194 0.0236,0.01199 0.0469,0.02364 0.0705,0.03916 0.0198,0.01199 0.0392,0.02752 0.0586,0.04727 0.0356,0.03493 0.0624,0.07796 0.0822,0.128763 0.0194,0.04692 0.0314,0.09772 0.0314,0.14852 0,0.101953 -0.043,0.2032 -0.1136,0.273755 -0.0194,0.01976 -0.0388,0.03528 -0.0586,0.0508 -0.0236,0.01552 -0.0469,0.02752 -0.0705,0.03493 -0.0229,0.01199 -0.0466,0.01976 -0.0702,0.02364 -0.0272,0.0042 -0.0508,0.0078 -0.0783,0.0078"
         style="fill:#2b3a55;fill-opacity:0.5;fill-rule:nonzero;stroke:none;stroke-width:0.0352778"
         id="path76" />
      <path
         d="m 122.14057,90.616889 c -0.21131,-0.03916 -0.35172,-0.242358 -0.31679,-0.453319 v 0 c 0.0392,-0.211314 0.23812,-0.355953 0.45367,-0.316795 v 0 c 0.21096,0.03528 0.35525,0.238478 0.31644,0.449439 v 0 c -0.0314,0.191559 -0.19544,0.324556 -0.38276,0.324556 v 0 c -0.0236,0 -0.0473,0 -0.0706,-0.0039 z M 98.63393,90.31597 v 0 0 c -0.03916,-0.210961 0.1016,-0.414161 0.316442,-0.449792 v 0 c 0.211314,-0.03881 0.414514,0.101953 0.453319,0.316795 h -0.0039 c 0.03916,0.210961 -0.1016,0.414161 -0.316442,0.449438 v 0 c -0.01976,0.0039 -0.04304,0.0081 -0.06632,0.0081 v 0 c -0.187678,0 -0.352072,-0.132997 -0.383117,-0.324555 z m 22.91256,2.263069 c -0.20355,-0.07444 -0.30903,-0.297039 -0.23495,-0.500591 v 0 c 0.0744,-0.2032 0.2974,-0.308681 0.5006,-0.234245 v 0 c 0.2032,0.07444 0.30868,0.30092 0.23424,0.500239 v 0 c -0.0586,0.160161 -0.20708,0.257881 -0.36724,0.257881 v 0 c -0.043,0 -0.09,-0.0078 -0.13265,-0.02328 z M 99.184969,92.363845 c -0.07444,-0.2032 0.02716,-0.425803 0.230364,-0.500239 v 0 c 0.203553,-0.07408 0.426155,0.0314 0.500239,0.230717 v 0 c 0.07444,0.2032 -0.02716,0.430036 -0.230364,0.504119 v 0 c -0.04692,0.01552 -0.08996,0.02364 -0.136878,0.02364 v 0 c -0.15628,0 -0.30868,-0.09772 -0.363361,-0.258233 z m 21.431251,2.044347 c -0.18803,-0.105481 -0.25012,-0.347839 -0.14499,-0.531636 v 0 c 0.10936,-0.187678 0.34819,-0.25012 0.53587,-0.144639 v 0 c 0.18732,0.109714 0.25012,0.347839 0.14464,0.535869 v 0 c -0.0744,0.124884 -0.20744,0.195086 -0.34008,0.195086 v 0 c -0.0663,0 -0.13335,-0.0194 -0.19544,-0.05468 z m -20.53237,-0.125236 c -0.109717,-0.187325 -0.0469,-0.425803 0.14076,-0.535517 v 0 c 0.18767,-0.105128 0.4258,-0.04269 0.53551,0.144992 v 0 c 0.10548,0.183444 0.043,0.425803 -0.14464,0.531283 v 0 c -0.0586,0.03528 -0.12911,0.05503 -0.19544,0.05503 v 0 c -0.13299,0 -0.26564,-0.07055 -0.33619,-0.195791 z m 19.29729,1.767064 c -0.16404,-0.136878 -0.18379,-0.383117 -0.0469,-0.551392 v 0 c 0.13653,-0.164042 0.38665,-0.183444 0.55104,-0.04692 v 0 c 0.16404,0.140758 0.18768,0.386997 0.0469,0.551038 v 0 c -0.0783,0.09419 -0.18768,0.140759 -0.29739,0.140759 v 0 c -0.09,0 -0.17956,-0.03105 -0.25365,-0.09349 z M 101.3034,96.01474 v 0 0 c -0.14076,-0.164395 -0.121,-0.410281 0.0469,-0.547511 v 0 c 0.16439,-0.140406 0.41028,-0.121003 0.55104,0.04727 v 0 c 0.13688,0.164042 0.11712,0.410281 -0.0508,0.551039 v 0 c -0.0702,0.05856 -0.16016,0.08996 -0.25012,0.08996 v 0 c -0.10936,0 -0.21908,-0.04692 -0.29704,-0.140758 z m 16.58055,1.438275 c -0.14075,-0.164042 -0.11747,-0.410281 0.0469,-0.551039 v 0 c 0.16405,-0.136525 0.41417,-0.117122 0.5514,0.0508 v 0 c 0.14005,0.164394 0.11712,0.410281 -0.0473,0.547158 v 0 c -0.0744,0.06279 -0.16404,0.09384 -0.25012,0.09384 v 0 c -0.11324,0 -0.2226,-0.04692 -0.30092,-0.140758 z m -15.08371,0.06279 c 0,0 0,0 0.004,0 v 0 c -0.16793,-0.140758 -0.18733,-0.38735 -0.0504,-0.551391 v 0 c 0.1404,-0.167923 0.38664,-0.187678 0.55069,-0.05045 v 0 c 0.16439,0.140406 0.18803,0.386645 0.0473,0.551039 v 0 c -0.0744,0.09349 -0.18768,0.140406 -0.29704,0.140406 v 0 c -0.09,0 -0.17992,-0.03105 -0.25435,-0.08961 z m 13.36357,1.06292 c -0.10513,-0.187678 -0.0427,-0.426156 0.14499,-0.535164 v 0 c 0.18768,-0.109714 0.4258,-0.04727 0.53517,0.140405 v 0 c 0.10583,0.187678 0.0434,0.426156 -0.14429,0.535517 v 0 c -0.0628,0.03528 -0.12912,0.0508 -0.19579,0.0508 v 0 c -0.13265,0 -0.26564,-0.06632 -0.34008,-0.191558 z m -11.62403,0.148872 c -0.18767,-0.105833 -0.25012,-0.344311 -0.14464,-0.531989 v 0 c 0.10937,-0.187325 0.34784,-0.254 0.53552,-0.144286 v 0 c 0.18733,0.109361 0.25012,0.347486 0.14076,0.535164 v 0 c -0.0706,0.125236 -0.20355,0.195439 -0.3362,0.195439 v 0 c -0.0663,0 -0.13264,-0.01552 -0.19544,-0.05433 z m 9.74055,0.656167 c -0.0744,-0.2032 0.0272,-0.425803 0.23036,-0.499887 v 0 c 0.2032,-0.07444 0.43004,0.03105 0.50024,0.234598 v 0 c 0.0744,0.2032 -0.0272,0.425802 -0.23036,0.500239 v 0 c -0.0473,0.01552 -0.09,0.02328 -0.13688,0.02328 v 0 c -0.15628,0 -0.30868,-0.09772 -0.36336,-0.258233 z m -7.81756,0.23883 c -0.2032,-0.07055 -0.30903,-0.297392 -0.23459,-0.500592 v 0 c 0.0706,-0.2032 0.29704,-0.3048 0.50024,-0.234597 v 0 c 0.2032,0.07444 0.30515,0.30092 0.23459,0.500592 v 0 c -0.0586,0.160161 -0.20708,0.25788 -0.36724,0.25788 v 0 c -0.0469,0 -0.09,-0.0078 -0.133,-0.02328 z m 5.81625,0.226483 c -0.0395,-0.210961 0.10548,-0.414161 0.31644,-0.453319 v 0 c 0.21484,-0.03528 0.41452,0.105481 0.45332,0.316794 v 0 c 0.0392,0.214842 -0.10513,0.418038 -0.31644,0.452968 v 0 c -0.0236,0.004 -0.0469,0.008 -0.0705,0.008 v 0 c -0.18345,0 -0.35137,-0.133 -0.38277,-0.324553 z m -3.76802,0.320673 c -0.21519,-0.0356 -0.3556,-0.238475 -0.32067,-0.45367 v 0 c 0.0392,-0.210961 0.23847,-0.3556 0.45367,-0.316441 v 0 c 0.21061,0.03528 0.35525,0.238477 0.31644,0.453319 v 0 c -0.0314,0.187672 -0.19932,0.324552 -0.38312,0.324552 v 0 c -0.0233,0 -0.0466,-0.004 -0.0663,-0.008 z m 1.71979,-0.211311 c 0,-0.214842 0.17216,-0.390878 0.39088,-0.390878 v 0 c 0.21484,0 0.39088,0.176036 0.39088,0.390878 v 0 c 0,0.215191 -0.17604,0.390871 -0.39088,0.390871 v 0 c -0.21872,0 -0.39088,-0.1718 -0.39088,-0.390871"
         style="fill:#2b3a55;fill-opacity:0.5;fill-rule:nonzero;stroke:none;stroke-width:0.0352778"
         id="path78" />
      <path
         d="m 98.83713,88.576423 c -0.02752,0 -0.0508,-0.0035 -0.07832,-0.0078 -0.02328,-0.0078 -0.04692,-0.01164 -0.0702,-0.02364 -0.02364,-0.0074 -0.04692,-0.02328 -0.07056,-0.03493 -0.01976,-0.01552 -0.03916,-0.03104 -0.05856,-0.04692 -0.07056,-0.07444 -0.113242,-0.175683 -0.113242,-0.277636 0,-0.105481 0.04269,-0.2032 0.113242,-0.277283 0.0194,-0.01976 0.03881,-0.03528 0.05856,-0.04727 0.02364,-0.01552 0.04692,-0.02716 0.07056,-0.03916 0.02328,-0.0074 0.04692,-0.01517 0.0702,-0.0194 0.07832,-0.01552 0.156281,-0.0078 0.226837,0.0194 0.04692,0.01976 0.08996,0.05115 0.128763,0.08643 0.07056,0.07408 0.113595,0.171802 0.113595,0.277283 0,0.101953 -0.04304,0.2032 -0.113595,0.277636 -0.0388,0.03528 -0.08184,0.06244 -0.128763,0.08184 -0.04727,0.01976 -0.09772,0.0314 -0.14852,0.0314"
         style="fill:#2b3a55;fill-opacity:0.5;fill-rule:nonzero;stroke:none;stroke-width:0.0352778"
         id="path80" />
      <path
         d="m 117.53188,88.576423 c -0.0233,0 -0.0504,-0.0035 -0.0741,-0.0078 -0.0275,-0.0039 -0.0505,-0.01164 -0.0741,-0.02364 -0.0236,-0.0074 -0.0469,-0.0194 -0.0667,-0.03493 -0.0229,-0.01552 -0.043,-0.03104 -0.0586,-0.0508 -0.0388,-0.03528 -0.0663,-0.07832 -0.0861,-0.125236 -0.0194,-0.04657 -0.0314,-0.09772 -0.0314,-0.148519 0,-0.105481 0.0434,-0.206728 0.11748,-0.277283 0.0155,-0.01976 0.0356,-0.03528 0.0586,-0.04727 0.0198,-0.01552 0.043,-0.02716 0.0667,-0.03916 0.0236,-0.0074 0.0466,-0.01517 0.0741,-0.0194 0.0508,-0.01129 0.10195,-0.01129 0.1524,0 0.0236,0.0042 0.0511,0.01199 0.0702,0.0194 0.0275,0.01199 0.0469,0.02364 0.0706,0.03916 0.0197,0.01199 0.0392,0.02752 0.0589,0.04727 0.0706,0.07408 0.11324,0.171802 0.11324,0.277283 0,0.101953 -0.0427,0.2032 -0.11324,0.273755 -0.0198,0.01976 -0.0392,0.03528 -0.0589,0.0508 -0.0236,0.01552 -0.043,0.02752 -0.0706,0.03493 -0.0191,0.01199 -0.0466,0.01976 -0.0702,0.02364 -0.0275,0.0042 -0.0505,0.0078 -0.0783,0.0078"
         style="fill:#2b3a55;fill-opacity:0.5;fill-rule:nonzero;stroke:none;stroke-width:0.0352778"
         id="path100" />
      <path
         d="m 117.14559,90.511409 c -0.20743,-0.05891 -0.32879,-0.277284 -0.26635,-0.484717 v 0 c 0.0589,-0.207081 0.27764,-0.324556 0.48507,-0.265642 v 0 c 0.20708,0.06209 0.32421,0.277284 0.26564,0.484364 v 0 0 0 c -0.0511,0.172156 -0.20708,0.281517 -0.37535,0.281517 v 0 c -0.0388,0 -0.0741,-0.0039 -0.10901,-0.01552 z m -13.54808,-0.257881 c -0.0621,-0.20708 0.055,-0.422275 0.26212,-0.485069 v 0 c 0.20708,-0.06244 0.42615,0.05891 0.48859,0.265994 v 0 c 0.0586,0.207081 -0.0586,0.422275 -0.26599,0.484717 v 0 c -0.0388,0.0078 -0.0741,0.01587 -0.10936,0.01587 v 0 c -0.1718,0 -0.32808,-0.109714 -0.37536,-0.281517 z m 12.62521,2.001308 c -0.18344,-0.113594 -0.23495,-0.355952 -0.11712,-0.539397 v 0 c 0.11712,-0.180269 0.35948,-0.234597 0.5394,-0.117475 v 0 c 0.18344,0.117475 0.23424,0.359481 0.11712,0.543278 v 0 c -0.0744,0.113594 -0.19932,0.175683 -0.32843,0.175683 v 0 c -0.0744,0 -0.14464,-0.0194 -0.21097,-0.06209 z m -11.75737,-0.109713 c -0.11713,-0.179917 -0.0663,-0.422275 0.11359,-0.539398 v 0 c 0.18345,-0.117475 0.4258,-0.06632 0.54328,0.117123 v 0 c 0.11712,0.179916 0.0624,0.422275 -0.11748,0.53975 v 0 c -0.0663,0.04269 -0.1404,0.06209 -0.21096,0.06209 v 0 c -0.12911,0 -0.254,-0.06209 -0.32843,-0.179563 z m 10.38119,1.528233 c -0.14005,-0.164042 -0.121,-0.410281 0.0395,-0.55492 h 0.004 c 0.16016,-0.140758 0.4064,-0.121355 0.55139,0.04304 v 0 c 0.14041,0.160161 0.12065,0.4064 -0.0434,0.551039 v 0 c 0,0 0,0 0.004,0 v 0 c -0.0737,0.06244 -0.16757,0.09384 -0.25718,0.09384 v 0 c -0.10971,0 -0.21907,-0.04692 -0.29774,-0.132997 z m -9.017,0.04304 c -0.16404,-0.140759 -0.18345,-0.390878 -0.043,-0.551039 v 0 c 0.14076,-0.164395 0.39088,-0.183797 0.55492,-0.04304 v 0 c 0.16051,0.144639 0.17992,0.390878 0.0395,0.554919 v 0 c -0.0783,0.08608 -0.18803,0.132998 -0.29704,0.132998 v 0 c -0.09,0 -0.1838,-0.0314 -0.25435,-0.09384 z m 7.30532,0.926394 c -0.0896,-0.195439 -0.008,-0.425803 0.19156,-0.515761 v 0 c 0.19544,-0.08996 0.42615,-0.0042 0.51576,0.191206 v 0 c 0.09,0.195438 0.004,0.430036 -0.19156,0.519994 v 0 c -0.0504,0.02364 -0.10936,0.03493 -0.16016,0.03493 v 0 c -0.14852,0 -0.29316,-0.08572 -0.3556,-0.230364 z m -5.55801,0.195439 c -0.19544,-0.08996 -0.28152,-0.320322 -0.19156,-0.515761 v 0 c 0.09,-0.195439 0.32032,-0.285397 0.51611,-0.195439 v 0 c 0.19509,0.08996 0.28505,0.324556 0.19509,0.519642 v 0 c -0.0663,0.144639 -0.20708,0.226483 -0.3556,0.226483 v 0 c -0.0547,0 -0.10972,-0.0078 -0.16404,-0.03493 z m 3.63502,0.254 c -0.0314,-0.214842 0.11712,-0.414161 0.33232,-0.441678 v 0 c 0.21484,-0.03104 0.41028,0.117475 0.44167,0.328436 v 0 c 0.0314,0.215195 -0.11712,0.414161 -0.33267,0.445559 v 0 c -0.0194,0 -0.0349,0.0039 -0.0543,0.0039 v 0 c -0.19156,0 -0.35948,-0.140758 -0.387,-0.336197 z m -1.6376,0.332317 c -0.21554,-0.0314 -0.36371,-0.230364 -0.33267,-0.441678 v 0 c 0.0314,-0.214842 0.23072,-0.363361 0.44168,-0.332317 v 0 c 0.21555,0.0314 0.36407,0.226836 0.33267,0.441678 v 0 c -0.0275,0.195439 -0.19544,0.336197 -0.387,0.336197 v 0 c -0.0159,0 -0.0353,-0.0039 -0.0547,-0.0039"
         style="fill:#2b3a55;fill-opacity:0.5;fill-rule:nonzero;stroke:none;stroke-width:0.0352778"
         id="path102" />
      <path
         d="m 103.69135,88.576423 c -0.10513,0 -0.2032,-0.04269 -0.27728,-0.117123 -0.0744,-0.07055 -0.11324,-0.171802 -0.11324,-0.273755 0,-0.0508 0.008,-0.1016 0.0272,-0.1524 0.0198,-0.04692 0.0508,-0.08996 0.0861,-0.124883 0.14464,-0.144992 0.4064,-0.144992 0.55104,0 0.0392,0.03493 0.0667,0.07796 0.0861,0.124883 0.0194,0.0508 0.031,0.1016 0.031,0.1524 0,0.101953 -0.0427,0.2032 -0.11712,0.273755 -0.0702,0.07444 -0.1718,0.117123 -0.27376,0.117123"
         style="fill:#2b3a55;fill-opacity:0.5;fill-rule:nonzero;stroke:none;stroke-width:0.0352778"
         id="path104" />
    </g>
  </g>
</svg>
